<svg id="Layer_1" data-name="Layer 1" xmlns="http://www.w3.org/2000/svg" viewBox="0 0 282 180"><defs><style>.cls-1,.cls-2{fill:#0b5567;fill-rule:evenodd}.cls-2{fill:#15a9ce}</style></defs><path class="cls-1" d="M281 130c-39.85-58-92.81-64.8-122-53-56.22 22.73-85.64 49.69-158-12 .23 61.77 59.27 118.7 101 112s101.15-72.81 179-47z"/><path class="cls-2" d="M123 119c44.38-20.81 76.23-19 89-17 23 3.66 49.12 10.49 69 28-38.57-65.27-81.65-63.48-128-56-57.4 9.26-79.64 52.69-152-9 23.69 78.47 67 79.78 122 54z"/><path class="cls-1" d="M191 56c-23.45-36.39-57.78-42.85-77-38C77 27.35 57.19 40.55 12 1c-1.52 35.05 37.79 67.17 65 66 41.14-.34 64.28-30.55 114-11z"/><path class="cls-2" d="M90 40c29.3-9 49.78-7 58-5 14.8 3.52 30.61 9.81 43 21-23.45-36.39-46.58-44-80-41-37.07 3.31-53.81 25.55-99-14 13.21 46 41.69 50.16 78 39z"/></svg>